<?xml version="1.0" standalone="no"?>
<!DOCTYPE svg PUBLIC "-//W3C//DTD SVG 20010904//EN"
 "http://www.w3.org/TR/2001/REC-SVG-20010904/DTD/svg10.dtd">
<svg version="1.0" xmlns="http://www.w3.org/2000/svg"
 width="512.000000pt" height="512.000000pt" viewBox="0 0 512.000000 512.000000"
 preserveAspectRatio="xMidYMid meet">
<metadata>
Created by potrace 1.14, written by Peter Selinger 2001-2017
</metadata>
<g transform="translate(0.000000,512.000000) scale(0.100000,-0.100000)"
fill="#000000" stroke="none">
<path d="M2720 3928 c-19 -5 -46 -19 -59 -31 -13 -12 -119 -214 -237 -449
-178 -357 -214 -435 -214 -470 0 -84 66 -148 151 -148 91 0 91 -1 331 475 192
380 217 436 217 478 1 57 -18 94 -62 124 -41 27 -83 34 -127 21z"/>
<path d="M3331 3929 c-96 -20 -148 -126 -105 -212 9 -18 84 -101 167 -184
l152 -153 -152 -152 c-83 -84 -158 -167 -167 -185 -33 -66 -10 -148 54 -191
29 -20 45 -23 91 -20 72 5 81 12 330 265 291 294 292 272 -10 576 -113 115
-219 218 -234 229 -36 26 -83 36 -126 27z"/>
<path d="M1693 3917 c-12 -7 -123 -112 -247 -234 -238 -236 -255 -258 -241
-331 6 -31 42 -72 233 -265 125 -126 239 -235 254 -243 15 -8 47 -14 71 -14
107 0 179 117 131 213 -9 18 -84 101 -167 184 l-151 153 151 153 c151 152 183
196 183 254 0 40 -32 94 -70 121 -37 25 -110 30 -147 9z"/>
<path d="M2 1703 c3 -244 4 -260 26 -304 36 -74 87 -125 160 -161 l67 -33 808
-3 c759 -2 808 -4 803 -20 -3 -9 -48 -143 -99 -297 l-94 -280 -189 -5 c-214
-6 -226 -10 -265 -87 -26 -53 -19 -110 19 -155 52 -61 -22 -58 1328 -58 l1236
0 39 22 c40 22 79 84 79 126 0 40 -32 102 -64 125 -29 20 -45 22 -220 27
l-189 5 -94 280 c-51 154 -96 288 -99 297 -5 17 43 18 803 20 l808 3 63 29
c77 36 143 105 171 182 19 50 21 77 21 299 l0 245 -2561 0 -2560 0 3 -257z"/>
</g>
</svg>
